<mxfile host="www.draw.io" modified="2020-01-10T05:46:24.296Z" agent="Mozilla/5.0 (Windows NT 10.0; Win64; x64) AppleWebKit/537.36 (KHTML, like Gecko) Chrome/79.0.3945.88 Safari/537.36" etag="zylSK3Tj73dpaG4g1s6F" version="12.5.1" type="github">
  <diagram id="_aSgYbk2bZONPqhFsnD0" name="Page-1">
    <mxGraphModel dx="1360" dy="753" grid="1" gridSize="10" guides="1" tooltips="1" connect="1" arrows="1" fold="1" page="1" pageScale="1" pageWidth="850" pageHeight="1100" math="0" shadow="0">
      <root>
        <mxCell id="0"/>
        <mxCell id="1" parent="0"/>
        <mxCell id="XMxpTALUWFT1hx9NKfQ9-1" value="i.MX6ULL&lt;br&gt;(MCIMX6Y2CVM08AB)" style="rounded=0;whiteSpace=wrap;html=1;" vertex="1" parent="1">
          <mxGeometry x="280" y="200" width="360" height="200" as="geometry"/>
        </mxCell>
      </root>
    </mxGraphModel>
  </diagram>
</mxfile>
